# xmcd
#
# Track frame offsets: 
#        150
#        17385
#        37876
#        61971
#        81722
#        107255
#        131698
#        157535
#        178968
#        203608
#        227388
#        258892
#        279528
#        305782
#
# Disc length: 4364 seconds
#
# Revision: 0
# Processed by: cddbd v1.5.1PL0 Copyright (c) Steve Scherf et al.
# Submitted via: ExactAudioCopy v0.95a5
#
DISCID=ab110a0e
DTITLE=Takkyu Ishino - Titles
DYEAR=2004
DGENRE=Electronic
TTITLE0=NU
TTITLE1=Wooden Case
TTITLE2=Tokaido
TTITLE3=Sam And Jerry
TTITLE4=The Gate
TTITLE5=Fujiyama
TTITLE6=XTHC
TTITLE7=Ich Bin...
TTITLE8=TBeisa
TTITLE9=Spelling Monkey
TTITLE10=The Rising Suns (Discotheque)
TTITLE11=Aoi Neon
TTITLE12=Twilights
TTITLE13=GoodTimes
EXTD=
EXTT0=
EXTT1=
EXTT2=
EXTT3=
EXTT4=
EXTT5=
EXTT6=
EXTT7=
EXTT8=
EXTT9=
EXTT10=
EXTT11=
EXTT12=
EXTT13=
PLAYORDER=
